<?xml version="1.0" encoding="UTF-8" standalone="no"?>
<!-- Created with Inkscape (http://www.inkscape.org/) -->

<svg
   width="300mm"
   height="400mm"
   viewBox="0 0 300 400"
   version="1.1"
   id="svg5766"
   inkscape:version="1.2.1 (9c6d41e410, 2022-07-14)"
   sodipodi:docname="Building3.svg"
   xmlns:inkscape="http://www.inkscape.org/namespaces/inkscape"
   xmlns:sodipodi="http://sodipodi.sourceforge.net/DTD/sodipodi-0.dtd"
   xmlns="http://www.w3.org/2000/svg"
   xmlns:svg="http://www.w3.org/2000/svg">
  <sodipodi:namedview
     id="namedview5768"
     pagecolor="#ffffff"
     bordercolor="#000000"
     borderopacity="0.25"
     inkscape:showpageshadow="2"
     inkscape:pageopacity="0.0"
     inkscape:pagecheckerboard="0"
     inkscape:deskcolor="#d1d1d1"
     inkscape:document-units="mm"
     showgrid="false"
     inkscape:zoom="0.28457506"
     inkscape:cx="337.34509"
     inkscape:cy="896.07289"
     inkscape:window-width="1920"
     inkscape:window-height="1017"
     inkscape:window-x="-8"
     inkscape:window-y="-8"
     inkscape:window-maximized="1"
     inkscape:current-layer="layer1" />
  <defs
     id="defs5763">
    <inkscape:perspective
       sodipodi:type="inkscape:persp3d"
       inkscape:vp_x="0 : 200 : 1"
       inkscape:vp_y="0 : 1000 : 0"
       inkscape:vp_z="300 : 200 : 1"
       inkscape:persp3d-origin="150 : 133.33333 : 1"
       id="perspective20729" />
    <clipPath
       clipPathUnits="userSpaceOnUse"
       id="clipPath6421">
      <path
         id="path6423"
         style="fill:#ff0000;fill-opacity:1;fill-rule:nonzero;stroke:none;stroke-width:0.264583"
         d="m 114.76147,78.447408 c -0.003,-7.94e-4 -0.0131,0.0024 -0.0331,0.01188 -0.0512,0.02405 -0.33564,0.206163 -0.61547,0.387572 0.0361,-0.01905 0.16889,-0.08587 0.17622,-0.08992 0.13539,-0.07482 0.49235,-0.303774 0.47232,-0.309544 z" />
    </clipPath>
  </defs>
  <g
     inkscape:label="Layer 1"
     inkscape:groupmode="layer"
     id="layer1">
    <path
       style="fill:#ffb380;stroke-width:2"
       d="m 98.645161,73.096773 c -2.449721,0.03164 -5.053571,-0.311923 -7.096776,0.709678 -0.211584,0.105791 -0.542403,-0.167272 -0.709676,0 -0.177419,0.177419 -0.177419,0.532257 -0.35484,0.709676 -0.11828,0.11828 -0.946235,0.236562 -1.064514,0.354841 -0.07776,0.07776 -0.963946,1.573051 -1.064517,1.774192 -0.392284,0.784569 -0.220228,0.110115 -0.709678,0.354838 -0.784567,0.392285 -0.110115,0.220229 -0.354838,0.709679 -0.354838,0.709676 -1.419355,1.064517 -1.774193,1.774193 -0.633648,1.267293 -1.486905,2.618967 -2.129033,3.903226 -0.105794,0.211584 0.105793,0.498091 0,0.709678 -0.406953,0.813904 -1.113843,1.567336 -1.419355,2.483869 -0.491509,1.474523 -1.115028,3.09127 -1.419355,4.612904 -0.06959,0.347949 0.101963,0.724641 0,1.064517 -0.258839,0.862801 -0.779661,1.629307 -1.064516,2.483871 -0.319355,0.958064 0.319354,2.235483 0,3.193548 -0.459656,1.378963 -0.720201,3.506297 -0.354838,4.967747 0.09535,0.3814 0.949671,1.5445 1.064516,1.77419 0.418108,0.83622 0.697839,2.11719 1.419355,2.83871 0.08364,0.0836 0.271201,-0.0836 0.354838,0 0.648174,0.64817 0.872964,1.75535 1.419355,2.48387 0.513905,0.68521 1.443826,1.61513 2.129033,2.12903 0.70317,0.52738 1.576102,0.43321 2.129031,0.70968 0.299227,0.14961 0.41045,0.56006 0.709678,0.70968 0.211585,0.10579 0.477711,-0.0464 0.709676,0 1.560454,0.31209 3.037113,1.10419 4.612905,1.41935 1.008806,0.20176 2.194639,-0.24973 3.193547,0 1.153001,0.28825 2.298517,0.58469 3.548384,0.70968 1.0425,0.10425 2.50141,-0.26174 3.54839,0 1.13305,0.28326 2.69111,0.75888 3.90323,0.35484 1.92084,-0.64028 4.30523,-3.28788 5.32258,-5.32258 0.78221,-1.56443 0.87862,-3.34556 1.41935,-4.96775 1.03154,-3.09461 1.55041,-12.92133 1.06452,-16.322575 -0.32235,-2.256401 -2.6374,-3.452802 -3.19355,-5.677421 -0.0574,-0.229495 0.0748,-0.485257 0,-0.709676 -0.17821,-0.534623 -1.09389,-1.285994 -1.41936,-1.774196 -0.29341,-0.440121 -0.33564,-1.045321 -0.70967,-1.419354 -0.20339,-0.203391 -1.62635,-1.197581 -1.7742,-1.419355 -0.21609,-0.324141 -0.30288,-0.861118 -0.70967,-1.064517 -0.21506,-0.107526 -0.91583,-0.206144 -1.06452,-0.354838 -0.0836,-0.08363 0.0836,-0.2712 0,-0.354838 -0.16727,-0.167272 -0.54241,0.167273 -0.70968,0 -0.0836,-0.08364 0.0836,-0.271203 0,-0.354838 -0.2509,-0.250909 -0.72788,0.11221 -1.06451,0 -0.15869,-0.0529 -0.20523,-0.280032 -0.35484,-0.35484 -0.29544,-0.147717 -1.19428,0.225078 -1.41936,0 -0.38226,-0.382265 -0.0423,-0.439542 -0.35483,-1.064514 -0.0529,-0.105794 -0.24905,0.05289 -0.35484,0 -1.13944,-0.569722 0.42976,-0.139959 -0.70968,-0.709679 -0.21159,-0.105791 -0.54241,0.167272 -0.70968,0 -0.0836,-0.08364 0.0836,-0.271203 0,-0.354838 -0.16727,-0.167272 -0.48526,0.07481 -0.70968,0 -0.604265,-0.201424 -1.182792,-0.47312 -1.774189,-0.709678 z"
       id="path6022"
       clip-path="url(#clipPath6421)"
       transform="translate(0,101.18521)" />
    <rect
       style="fill:#5e6260;fill-opacity:1;stroke:#000000;stroke-width:2.3704;stroke-opacity:1"
       id="rect6533"
       width="196.91991"
       height="297.62958"
       x="51.540047"
       y="102.37042" />
    <rect
       style="fill:#5e6260;fill-opacity:1;stroke:#000000;stroke-width:2;stroke-opacity:1"
       id="rect11048"
       width="91.330826"
       height="91.330826"
       x="104.33459"
       y="269.29416" />
    <rect
       style="fill:#5e6260;fill-opacity:1;stroke:#000000;stroke-width:2.40925;stroke-opacity:1"
       id="rect11050"
       width="132.57245"
       height="62.823421"
       x="83.713768"
       y="206.2661" />
    <rect
       style="fill:#5e6260;fill-opacity:1;stroke:#000000;stroke-width:2;stroke-opacity:1"
       id="rect12504"
       width="97.305504"
       height="20.572704"
       x="101.34724"
       y="240.89886" />
    <rect
       style="fill:#5e6260;fill-opacity:1;stroke:#000000;stroke-width:2;stroke-opacity:1"
       id="rect12506"
       width="97.305504"
       height="20.572704"
       x="101.34724"
       y="212.50359" />
    <rect
       style="fill:#5e6260;fill-opacity:1;stroke:#000000;stroke-width:2;stroke-opacity:1"
       id="rect13960"
       width="119.43262"
       height="37.837315"
       x="90.283684"
       y="162.40698" />
    <rect
       style="fill:#5e6260;fill-opacity:1;stroke:#000000;stroke-width:2;stroke-opacity:1"
       id="rect14744"
       width="91.471863"
       height="37.8494"
       x="104.26406"
       y="162.40094" />
    <rect
       style="fill:#5e6260;fill-opacity:1;stroke:#000000;stroke-width:2;stroke-opacity:1"
       id="rect18376"
       width="14.548388"
       height="31.580645"
       x="79.129028"
       y="326.86264" />
    <rect
       style="fill:#5e6260;fill-opacity:1;stroke:#000000;stroke-width:2;stroke-opacity:1"
       id="rect18378"
       width="14.548388"
       height="31.580645"
       x="57.129028"
       y="326.86264" />
    <rect
       style="fill:#5e6260;fill-opacity:1;stroke:#000000;stroke-width:2;stroke-opacity:1"
       id="rect18380"
       width="14.548388"
       height="31.580645"
       x="57.129028"
       y="287.83038" />
    <rect
       style="fill:#5e6260;fill-opacity:1;stroke:#000000;stroke-width:2;stroke-opacity:1"
       id="rect18382"
       width="14.548388"
       height="31.580645"
       x="79.129028"
       y="287.83038" />
    <rect
       style="fill:#5e6260;fill-opacity:1;stroke:#000000;stroke-width:2;stroke-opacity:1"
       id="rect18384"
       width="14.548388"
       height="31.580645"
       x="57.129028"
       y="248.44327" />
    <rect
       style="fill:#5e6260;fill-opacity:1;stroke:#000000;stroke-width:2;stroke-opacity:1"
       id="rect18386"
       width="14.548388"
       height="31.580645"
       x="57.129028"
       y="208.34651" />
    <rect
       style="fill:#5e6260;fill-opacity:1;stroke:#000000;stroke-width:2;stroke-opacity:1"
       id="rect18388"
       width="14.548388"
       height="31.580645"
       x="57.129028"
       y="166.29813" />
    <rect
       style="fill:#5e6260;fill-opacity:1;stroke:#000000;stroke-width:2;stroke-opacity:1"
       id="rect18390"
       width="14.548388"
       height="31.580645"
       x="57.129028"
       y="122.29812" />
    <rect
       style="fill:#5e6260;fill-opacity:1;stroke:#000000;stroke-width:2;stroke-opacity:1"
       id="rect18392"
       width="14.548388"
       height="31.580645"
       x="82.009491"
       y="122.29812" />
    <rect
       style="fill:#5e6260;fill-opacity:1;stroke:#000000;stroke-width:2;stroke-opacity:1"
       id="rect18402"
       width="14.548388"
       height="31.580645"
       x="-219.37131"
       y="326.86264"
       transform="scale(-1,1)" />
    <rect
       style="fill:#5e6260;fill-opacity:1;stroke:#000000;stroke-width:2;stroke-opacity:1"
       id="rect18404"
       width="14.548388"
       height="31.580645"
       x="-241.37131"
       y="326.86264"
       transform="scale(-1,1)" />
    <rect
       style="fill:#5e6260;fill-opacity:1;stroke:#000000;stroke-width:2;stroke-opacity:1"
       id="rect18406"
       width="14.548388"
       height="31.580645"
       x="-241.37131"
       y="287.83038"
       transform="scale(-1,1)" />
    <rect
       style="fill:#5e6260;fill-opacity:1;stroke:#000000;stroke-width:2;stroke-opacity:1"
       id="rect18408"
       width="14.548388"
       height="31.580645"
       x="-219.37131"
       y="287.83038"
       transform="scale(-1,1)" />
    <rect
       style="fill:#5e6260;fill-opacity:1;stroke:#000000;stroke-width:2;stroke-opacity:1"
       id="rect18410"
       width="14.548388"
       height="31.580645"
       x="-241.37131"
       y="248.44327"
       transform="scale(-1,1)" />
    <rect
       style="fill:#5e6260;fill-opacity:1;stroke:#000000;stroke-width:2;stroke-opacity:1"
       id="rect18412"
       width="14.548388"
       height="31.580645"
       x="-241.37131"
       y="208.34651"
       transform="scale(-1,1)" />
    <rect
       style="fill:#5e6260;fill-opacity:1;stroke:#000000;stroke-width:2;stroke-opacity:1"
       id="rect18414"
       width="14.548388"
       height="31.580645"
       x="-241.37131"
       y="166.29813"
       transform="scale(-1,1)" />
    <rect
       style="fill:#5e6260;fill-opacity:1;stroke:#000000;stroke-width:2;stroke-opacity:1"
       id="rect18416"
       width="14.548388"
       height="31.580645"
       x="-241.37131"
       y="122.29812"
       transform="scale(-1,1)" />
    <rect
       style="fill:#5e6260;fill-opacity:1;stroke:#000000;stroke-width:2;stroke-opacity:1"
       id="rect18418"
       width="14.548388"
       height="31.580645"
       x="-216.49084"
       y="122.29812"
       transform="scale(-1,1)" />
    <rect
       style="fill:#5e6260;fill-opacity:1;stroke:#000000;stroke-width:2;stroke-opacity:1"
       id="rect18424"
       width="92.967743"
       height="51.508339"
       x="102.7258"
       y="102.37042" />
    <rect
       style="fill:#5e6260;fill-opacity:1;stroke:#000000;stroke-width:2;stroke-opacity:1"
       id="rect18426"
       width="72.741936"
       height="29.451612"
       x="113.62903"
       y="117.70938" />
    <rect
       style="fill:#5e6260;fill-opacity:1;stroke:#000000;stroke-width:2;stroke-opacity:1"
       id="rect19880"
       width="6.5526791"
       height="13.799596"
       x="112.62903"
       y="88.570831" />
    <rect
       style="fill:#5e6260;fill-opacity:1;stroke:#000000;stroke-width:2;stroke-opacity:1"
       id="rect19882"
       width="6.5526791"
       height="13.799596"
       x="179.81828"
       y="88.570831" />
    <rect
       style="fill:#5e6260;fill-opacity:1;stroke:#000000;stroke-width:2;stroke-opacity:1;stroke-dasharray:none"
       id="rect19884"
       width="76.284897"
       height="40.833603"
       x="111.06722"
       y="47.886539" />
    <rect
       style="fill:#5e6260;fill-opacity:1;stroke:#000000;stroke-width:2;stroke-opacity:1"
       id="rect19886"
       width="6.5526791"
       height="13.799596"
       x="112.62903"
       y="88.570831" />
    <rect
       style="fill:#5e6260;fill-opacity:1;stroke:#000000;stroke-width:2;stroke-opacity:1"
       id="rect19888"
       width="6.5526791"
       height="13.799596"
       x="179.81828"
       y="88.570831" />
    <rect
       style="fill:#5e6260;fill-opacity:1;stroke:#000000;stroke-width:2;stroke-dasharray:none;stroke-opacity:1"
       id="rect19892"
       width="3.237684"
       height="13.799596"
       x="56.105801"
       y="88.570831" />
    <rect
       style="fill:#5e6260;fill-opacity:1;stroke:#000000;stroke-width:2;stroke-dasharray:none;stroke-opacity:1"
       id="rect19894"
       width="3.237684"
       height="13.799596"
       x="89.304062"
       y="88.570831" />
    <rect
       style="fill:#5e6260;fill-opacity:1;stroke:#000000;stroke-width:2;stroke-dasharray:none;stroke-opacity:1"
       id="rect19896"
       width="67.464142"
       height="40.399963"
       x="40.838753"
       y="48.103359" />
    <rect
       style="fill:#5e6260;fill-opacity:1;stroke:#000000;stroke-width:2;stroke-dasharray:none;stroke-opacity:1"
       id="rect22980"
       width="3.237684"
       height="13.799596"
       x="205.3835"
       y="88.570831" />
    <rect
       style="fill:#5e6260;fill-opacity:1;stroke:#000000;stroke-width:2;stroke-dasharray:none;stroke-opacity:1"
       id="rect22982"
       width="3.237684"
       height="13.799596"
       x="238.58176"
       y="88.570831" />
    <rect
       style="fill:#5e6260;fill-opacity:1;stroke:#000000;stroke-width:2;stroke-dasharray:none;stroke-opacity:1"
       id="rect22984"
       width="67.464142"
       height="40.399963"
       x="190.11646"
       y="48.103359" />
    <circle
       style="fill:#5e6260;fill-opacity:1;stroke:#000000;stroke-width:2;stroke-dasharray:none;stroke-opacity:1"
       id="path24490"
       cx="150"
       cy="314.95956"
       r="40.908947" />
  </g>
</svg>
