<?xml version="1.0" encoding="UTF-8" standalone="no"?>
<!-- Created with Inkscape (http://www.inkscape.org/) -->

<svg
   width="300mm"
   height="400mm"
   viewBox="0 0 300 400"
   version="1.1"
   id="svg5766"
   inkscape:version="1.2.1 (9c6d41e410, 2022-07-14)"
   sodipodi:docname="Building3.svg"
   inkscape:export-filename="..\2Dcargame\Assets\Images\Building3.png"
   inkscape:export-xdpi="96"
   inkscape:export-ydpi="96"
   xmlns:inkscape="http://www.inkscape.org/namespaces/inkscape"
   xmlns:sodipodi="http://sodipodi.sourceforge.net/DTD/sodipodi-0.dtd"
   xmlns="http://www.w3.org/2000/svg"
   xmlns:svg="http://www.w3.org/2000/svg">
  <sodipodi:namedview
     id="namedview5768"
     pagecolor="#ffffff"
     bordercolor="#000000"
     borderopacity="0.25"
     inkscape:showpageshadow="2"
     inkscape:pageopacity="0.0"
     inkscape:pagecheckerboard="0"
     inkscape:deskcolor="#d1d1d1"
     inkscape:document-units="mm"
     showgrid="false"
     inkscape:zoom="0.28457506"
     inkscape:cx="621.98001"
     inkscape:cy="456.82148"
     inkscape:window-width="1920"
     inkscape:window-height="1017"
     inkscape:window-x="-8"
     inkscape:window-y="-8"
     inkscape:window-maximized="1"
     inkscape:current-layer="layer1" />
  <defs
     id="defs5763">
    <inkscape:perspective
       sodipodi:type="inkscape:persp3d"
       inkscape:vp_x="0 : 200 : 1"
       inkscape:vp_y="0 : 1000 : 0"
       inkscape:vp_z="300 : 200 : 1"
       inkscape:persp3d-origin="150 : 133.33333 : 1"
       id="perspective20729" />
    <clipPath
       clipPathUnits="userSpaceOnUse"
       id="clipPath6421">
      <path
         id="path6423"
         style="fill:#ff0000;fill-opacity:1;fill-rule:nonzero;stroke:none;stroke-width:0.264583"
         d="m 114.76147,78.447408 c -0.003,-7.94e-4 -0.0131,0.0024 -0.0331,0.01188 -0.0512,0.02405 -0.33564,0.206163 -0.61547,0.387572 0.0361,-0.01905 0.16889,-0.08587 0.17622,-0.08992 0.13539,-0.07482 0.49235,-0.303774 0.47232,-0.309544 z" />
    </clipPath>
  </defs>
  <g
     inkscape:label="Layer 1"
     inkscape:groupmode="layer"
     id="layer1">
    <rect
       style="fill:#5e6260;fill-opacity:1;stroke:#2f323a;stroke-width:2.3704;stroke-opacity:1"
       id="rect6533"
       width="196.83774"
       height="296.47894"
       x="51.540047"
       y="97.308952" />
    <rect
       style="fill:#c7c9c8;fill-opacity:1;stroke:#2f323a;stroke-width:2;stroke-opacity:1"
       id="rect11048"
       width="91.330826"
       height="91.330826"
       x="104.33459"
       y="264.2327" />
    <rect
       style="fill:#ebebda;fill-opacity:1;stroke:#2f323a;stroke-width:2.40925;stroke-opacity:1"
       id="rect11050"
       width="132.57245"
       height="62.823421"
       x="83.713768"
       y="201.20462" />
    <rect
       style="fill:#ffffff;fill-opacity:1;stroke:#2f323a;stroke-width:2;stroke-opacity:1"
       id="rect12504"
       width="97.305504"
       height="20.572704"
       x="101.34724"
       y="235.83739" />
    <rect
       style="fill:#e74949;fill-opacity:1;stroke:#2f323a;stroke-width:2;stroke-opacity:1"
       id="rect12506"
       width="97.305504"
       height="20.572704"
       x="101.34724"
       y="207.44211" />
    <rect
       style="fill:#ffd056;fill-opacity:1;stroke:#2f323a;stroke-width:2;stroke-opacity:1"
       id="rect13960"
       width="119.43262"
       height="37.837315"
       x="90.283684"
       y="157.3455" />
    <rect
       style="fill:#eaeade;fill-opacity:1;stroke:#2f323a;stroke-width:2;stroke-opacity:1"
       id="rect14744"
       width="91.471863"
       height="37.8494"
       x="104.26406"
       y="157.33946" />
    <rect
       style="fill:#d9ffd9;fill-opacity:1;stroke:#2f323a;stroke-width:2;stroke-opacity:1"
       id="rect18424"
       width="92.967743"
       height="51.508339"
       x="102.7258"
       y="97.308952" />
    <rect
       style="fill:#797aa4;fill-opacity:1;stroke:#2f323a;stroke-width:2;stroke-opacity:1"
       id="rect18426"
       width="72.741936"
       height="29.451612"
       x="113.62903"
       y="112.64791" />
    <rect
       style="fill:#5e6260;fill-opacity:1;stroke:#000000;stroke-width:2;stroke-opacity:1"
       id="rect19880"
       width="6.5526791"
       height="13.799596"
       x="112.62903"
       y="83.509361" />
    <rect
       style="fill:#5e6260;fill-opacity:1;stroke:#000000;stroke-width:2;stroke-opacity:1"
       id="rect19882"
       width="6.5526791"
       height="13.799596"
       x="179.81828"
       y="83.509361" />
    <rect
       style="fill:#5e6260;fill-opacity:1;stroke:#2f323a;stroke-width:2;stroke-opacity:1"
       id="rect19886"
       width="6.5526791"
       height="13.799596"
       x="112.62903"
       y="83.509361" />
    <rect
       style="fill:#5e6260;fill-opacity:1;stroke:#2f323a;stroke-width:2;stroke-opacity:1"
       id="rect19888"
       width="6.5526791"
       height="13.799596"
       x="179.81828"
       y="83.509361" />
    <rect
       style="fill:#77d379;fill-opacity:1;stroke:#2f323a;stroke-width:2;stroke-dasharray:none;stroke-opacity:1"
       id="rect19884"
       width="76.284897"
       height="40.833603"
       x="111.06722"
       y="42.825066" />
    <rect
       style="fill:#5e6260;fill-opacity:1;stroke:#2f323a;stroke-width:2;stroke-dasharray:none;stroke-opacity:1"
       id="rect19892"
       width="3.237684"
       height="13.799596"
       x="56.105801"
       y="83.509361" />
    <rect
       style="fill:#5e6260;fill-opacity:1;stroke:#2f323a;stroke-width:2;stroke-dasharray:none;stroke-opacity:1"
       id="rect19894"
       width="3.237684"
       height="13.799596"
       x="89.304062"
       y="83.509361" />
    <rect
       style="fill:#374f82;fill-opacity:1;stroke:#2f323a;stroke-width:2;stroke-dasharray:none;stroke-opacity:1"
       id="rect19896"
       width="67.464142"
       height="40.399963"
       x="40.838753"
       y="43.041885" />
    <rect
       style="fill:#5e6260;fill-opacity:1;stroke:#2f323a;stroke-width:2;stroke-dasharray:none;stroke-opacity:1"
       id="rect22980"
       width="3.237684"
       height="13.799596"
       x="205.3835"
       y="83.509361" />
    <rect
       style="fill:#5e6260;fill-opacity:1;stroke:#2f323a;stroke-width:2;stroke-dasharray:none;stroke-opacity:1"
       id="rect22982"
       width="3.237684"
       height="13.799596"
       x="238.58176"
       y="83.509361" />
    <rect
       style="fill:#374f82;fill-opacity:1;stroke:#2f323a;stroke-width:2;stroke-dasharray:none;stroke-opacity:1"
       id="rect22984"
       width="67.464142"
       height="40.399963"
       x="190.11646"
       y="43.041885" />
    <circle
       style="fill:#ce1235;fill-opacity:1;stroke:#2f323a;stroke-width:2;stroke-dasharray:none;stroke-opacity:1"
       id="path24490"
       cx="150"
       cy="309.8981"
       r="40.908947" />
    <path
       style="display:inline;fill:#2dff95;fill-opacity:1;stroke:#2f323a;stroke-width:2;stroke-opacity:1"
       d="m 134.11607,235.83739 c 0,0 -9.03969,8.99366 -9.53276,20.57271 l -23.23608,-2e-5 v -20.57269 h 32.60448"
       id="path5161"
       sodipodi:nodetypes="ccccc" />
    <path
       style="display:inline;fill:#ffffff;fill-opacity:1;stroke:#2f323a;stroke-width:2;stroke-opacity:1"
       d="m 133.45864,228.01482 c 0,0 -25.3877,-0.11575 -4.93074,-20.57271 h -27.18067 v 20.57271 z"
       id="path6039"
       sodipodi:nodetypes="ccccc" />
    <path
       id="rect18582"
       style="display:inline;fill:#49acc6;stroke:#000000;stroke-width:2"
       d="m 150,377.89251 h 11.66635 v 17.04602 H 150 Z m 0,0 h 23.3327 v 17.04602 H 150 Z m -11.6664,0 h 11.66638 V 394.9385 H 138.3336 Z m -11.66633,0 h 23.3327 v 17.04599 h -23.3327 z m 46.66543,0 h 23.33271 V 394.9385 H 173.3327 Z m -23.33272,0 h 46.66542 v 17.04599 h -46.66542 z m -46.66542,0 h 23.3327 v 17.04599 h -23.3327 z m 1e-5,0 h 46.66541 v 17.04599 h -46.66541 z m 1e-5,0 h 93.33082 v 17.046 h -93.33082 z m 0,-10.19022 h 93.33083 v 27.23622 H 103.33458 Z M 216.49084,117.23665 h -14.54838 v 31.58064 h 14.54838 z m 24.88047,0 h -14.54839 v 31.58064 h 14.54839 z m 0,44.00001 h -14.54839 v 31.58064 h 14.54839 z m 0,42.04838 h -14.54839 v 31.58065 h 14.54839 z m 0,40.09676 h -14.54839 v 31.58064 h 14.54839 z m -22,39.38711 h -14.54839 v 31.58065 h 14.54839 z m 22,0 h -14.54839 v 31.58065 h 14.54839 z m 0,39.03226 h -14.54839 v 31.58064 h 14.54839 z m -22,0 h -14.54839 v 31.58064 h 14.54839 z M 82.009491,117.23665 h 14.548387 v 31.58064 H 82.009491 Z m -24.880463,0 h 14.548388 v 31.58064 H 57.129028 Z m 0,44.00001 H 71.677416 V 192.8173 H 57.129028 Z m 0,42.04838 h 14.548388 v 31.58065 H 57.129028 Z m 0,40.09676 h 14.548388 v 31.58064 H 57.129028 Z m 22,39.38711 h 14.548388 v 31.58065 H 79.129028 Z m -22,0 h 14.548388 v 31.58065 H 57.129028 Z m 0,39.03226 h 14.548388 v 31.58064 H 57.129028 Z m 22,0 h 14.548388 v 31.58064 H 79.129028 Z" />
    <path
       id="path27548"
       style="display:inline;fill:#aedae6;fill-opacity:1;stroke:none;stroke-width:2"
       d="m 204.84073,117.23649 -2.89802,2.38797 v 26.50432 l 14.54795,-11.98789 v -16.9044 z m 21.98212,0 v 8.39019 l 10.1818,-8.39019 z M 71.677279,226.96623 62.0913,234.86549 h 9.585979 z m -14.548466,16.41553 v 22.07721 l 14.548466,-11.9879 v -10.08931 z" />
    <path
       id="path27474"
       style="display:inline;fill:#aedae6;fill-opacity:1;stroke:none;stroke-width:2"
       d="m 241.37131,285.54766 -14.54846,13.99502 v 14.80684 h 14.00534 l 0.54312,-0.52244 z m -22.0002,21.16305 -7.94112,7.63881 h 7.94112 z m -14.54795,15.09056 v 27.18335 l 14.54795,-13.99449 v -13.18886 z m 21.99969,0 v 6.02082 l 6.25905,-6.02082 z m -70.85563,45.90107 -28.31351,27.23606 h 29.39769 l 28.31351,-27.23606 z" />
    <path
       id="path23059"
       style="display:inline;fill:#aedae6;fill-opacity:1;stroke:none;stroke-width:2;stroke-opacity:1"
       d="m 241.37131,140.50587 -9.25266,8.31164 h 9.25266 z m -14.54846,20.73104 v 31.5805 h 5.50199 l 9.04647,-8.12612 V 161.23691 Z M 82.994417,282.76902 79.12902,286.24116 v 28.10836 h 14.548466 v -31.5805 z m -11.317138,10.16579 -14.548466,13.06794 v 8.34677 h 14.548466 z m -14.548466,28.86646 v 28.38689 l 14.548466,-13.06793 v -15.31896 z m 22.000207,0 v 8.62531 l 9.601998,-8.62531 z" />
    <path
       id="path25811"
       style="display:inline;fill:none;stroke:#2f323a;stroke-width:2;stroke-opacity:1"
       d="m 150,377.89251 h 11.66635 v 17.04602 H 150 Z m 0,0 h 23.3327 v 17.04602 H 150 Z m -11.6664,0 h 11.66638 V 394.9385 H 138.3336 Z m -11.66633,0 h 23.3327 v 17.04599 h -23.3327 z m 46.66543,0 h 23.33271 V 394.9385 H 173.3327 Z m -23.33272,0 h 46.66542 v 17.04599 h -46.66542 z m -46.66542,0 h 23.3327 v 17.04599 h -23.3327 z m 1e-5,0 h 46.66541 v 17.04599 h -46.66541 z m 1e-5,0 h 93.33082 v 17.046 h -93.33082 z m 0,-10.19022 h 93.33083 v 27.23622 H 103.33458 Z M 216.49084,117.23665 h -14.54838 v 31.58064 h 14.54838 z m 24.88047,0 h -14.54839 v 31.58064 h 14.54839 z m 0,44.00001 h -14.54839 v 31.58064 h 14.54839 z m 0,42.04838 h -14.54839 v 31.58065 h 14.54839 z m 0,40.09676 h -14.54839 v 31.58064 h 14.54839 z m -22,39.38711 h -14.54839 v 31.58065 h 14.54839 z m 22,0 h -14.54839 v 31.58065 h 14.54839 z m 0,39.03226 h -14.54839 v 31.58064 h 14.54839 z m -22,0 h -14.54839 v 31.58064 h 14.54839 z M 82.009491,117.23665 h 14.548387 v 31.58064 H 82.009491 Z m -24.880463,0 h 14.548388 v 31.58064 H 57.129028 Z m 0,44.00001 H 71.677416 V 192.8173 H 57.129028 Z m 0,42.04838 h 14.548388 v 31.58065 H 57.129028 Z m 0,40.09676 h 14.548388 v 31.58064 H 57.129028 Z m 22,39.38711 h 14.548388 v 31.58065 H 79.129028 Z m -22,0 h 14.548388 v 31.58065 H 57.129028 Z m 0,39.03226 h 14.548388 v 31.58064 H 57.129028 Z m 22,0 h 14.548388 v 31.58064 H 79.129028 Z" />
    <path
       id="circle34027"
       style="fill:#000000;fill-opacity:1;stroke:#000000;stroke-width:2;stroke-dasharray:none;stroke-opacity:1"
       d="m 112.85564,292.8051 a 40.908947,40.908947 0 0 0 -3.76462,17.09302 40.908947,40.908947 0 0 0 3.76462,17.09301 h 74.28849 a 40.908947,40.908947 0 0 0 3.76463,-17.09301 40.908947,40.908947 0 0 0 -3.74499,-17.09302 z" />
    <text
       xml:space="preserve"
       style="font-size:9.93766px;font-family:'Javanese Text';-inkscape-font-specification:'Javanese Text';fill:#ffb804;fill-opacity:1;stroke:#000000;stroke-width:0;stroke-dasharray:none;stroke-opacity:1"
       x="127.22744"
       y="266.07562"
       id="text35536"
       transform="scale(0.84618957,1.1817683)"><tspan
         sodipodi:role="line"
         id="tspan35534"
         style="fill:#ffb804;fill-opacity:1;stroke-width:0"
         x="127.22744"
         y="266.07562">ショッピングセンター</tspan></text>
    <text
       xml:space="preserve"
       style="font-size:16.1585px;font-family:'Javanese Text';-inkscape-font-specification:'Javanese Text';fill:#000000;fill-opacity:1;stroke:#000000;stroke-width:0;stroke-dasharray:none;stroke-opacity:1"
       x="124.05036"
       y="266.94733"
       id="text49107"
       transform="scale(1.0572705,0.94583175)"><tspan
         sodipodi:role="line"
         id="tspan49105"
         style="fill:#000000;fill-opacity:1;stroke-width:0"
         x="124.05036"
         y="266.94733">寿司バー</tspan></text>
    <text
       xml:space="preserve"
       style="font-size:15.4369px;font-family:'Javanese Text';-inkscape-font-specification:'Javanese Text';fill:#50e55a;fill-opacity:1;stroke:#000000;stroke-width:0;stroke-dasharray:none;stroke-opacity:1"
       x="124.1011"
       y="266.35303"
       id="text48239"
       transform="scale(1.0572705,0.94583175)"><tspan
         sodipodi:role="line"
         id="tspan48237"
         style="fill:#50e55a;fill-opacity:1;stroke-width:0"
         x="124.1011"
         y="266.35303">寿司バー</tspan></text>
    <text
       xml:space="preserve"
       style="font-size:14.3474px;font-family:'Javanese Text';-inkscape-font-specification:'Javanese Text';fill:#540b0b;fill-opacity:1;stroke:#000000;stroke-width:0;stroke-dasharray:none;stroke-opacity:1"
       x="150.33505"
       y="189.27078"
       id="text50617"
       transform="scale(0.84153181,1.1883092)"><tspan
         sodipodi:role="line"
         id="tspan50615"
         style="fill:#540b0b;fill-opacity:1;stroke-width:0"
         x="150.33505"
         y="189.27078">ビデオゲーム</tspan></text>
    <text
       xml:space="preserve"
       style="font-size:13.7179px;font-family:'Javanese Text';-inkscape-font-specification:'Javanese Text';fill:#ffffff;fill-opacity:1;stroke:#000000;stroke-width:0;stroke-dasharray:none;stroke-opacity:1"
       x="151.06361"
       y="188.6013"
       id="text50613"
       transform="scale(0.8415318,1.1883092)"><tspan
         sodipodi:role="line"
         id="tspan50611"
         style="fill:#ffffff;fill-opacity:1;stroke-width:0"
         x="151.06361"
         y="188.6013">ビデオゲーム</tspan></text>
    <text
       xml:space="preserve"
       style="font-size:30.1589px;font-family:'Javanese Text';-inkscape-font-specification:'Javanese Text';fill:#6936ac;fill-opacity:1;stroke:#000000;stroke-width:0;stroke-dasharray:none;stroke-opacity:1"
       x="105.04581"
       y="187.63011"
       id="text52248"><tspan
         sodipodi:role="line"
         id="tspan52246"
         style="fill:#6936ac;fill-opacity:1;stroke-width:0"
         x="105.04581"
         y="187.63011">図書館</tspan></text>
    <text
       xml:space="preserve"
       style="font-size:29.3812px;font-family:'Javanese Text';-inkscape-font-specification:'Javanese Text';fill:#211136;fill-opacity:1;stroke:#000000;stroke-width:0;stroke-dasharray:none;stroke-opacity:1"
       x="105.1248"
       y="186.99519"
       id="text52194"><tspan
         sodipodi:role="line"
         id="tspan52192"
         style="fill:#211136;fill-opacity:1;stroke-width:0"
         x="105.1248"
         y="186.99519">図書館</tspan></text>
    <text
       xml:space="preserve"
       style="font-size:16.998px;font-family:'Javanese Text';-inkscape-font-specification:'Javanese Text';fill:#6b6c0e;fill-opacity:1;stroke:#000000;stroke-width:0;stroke-dasharray:none;stroke-opacity:1"
       x="114.98042"
       y="133.75171"
       id="text53172"><tspan
         sodipodi:role="line"
         id="tspan53170"
         style="fill:#6b6c0e;fill-opacity:1;stroke-width:0"
         x="114.98042"
         y="133.75171">電子機器</tspan></text>
    <text
       xml:space="preserve"
       style="font-size:16.3216px;font-family:'Javanese Text';-inkscape-font-specification:'Javanese Text';fill:#b4b717;fill-opacity:1;stroke:#000000;stroke-width:0;stroke-dasharray:none;stroke-opacity:1"
       x="117.03802"
       y="133.20741"
       id="text53030"><tspan
         sodipodi:role="line"
         id="tspan53028"
         style="fill:#b4b717;fill-opacity:1;stroke-width:0"
         x="117.03802"
         y="133.20741">電子機器</tspan></text>
    <text
       xml:space="preserve"
       style="font-size:18.4184px;font-family:'Javanese Text';-inkscape-font-specification:'Javanese Text';fill:#c12a2a;fill-opacity:1;stroke:#000000;stroke-width:0;stroke-dasharray:none;stroke-opacity:1"
       x="111.83327"
       y="60.605091"
       id="text53954"><tspan
         sodipodi:role="line"
         style="fill:#c12a2a;fill-opacity:1;stroke-width:0"
         x="111.83327"
         y="60.605091"
         id="tspan56236">カンフー</tspan></text>
    <text
       xml:space="preserve"
       style="font-size:8.39522px;font-family:'Javanese Text';-inkscape-font-specification:'Javanese Text';fill:#c12a2a;fill-opacity:1;stroke:#000000;stroke-width:0;stroke-dasharray:none;stroke-opacity:1"
       x="123.47594"
       y="70.844475"
       id="text59146"><tspan
         sodipodi:role="line"
         id="tspan59144"
         style="stroke-width:0"
         x="123.47594"
         y="70.844475">0467-67-6078</tspan></text>
    <text
       xml:space="preserve"
       style="font-size:10.361px;font-family:'Javanese Text';-inkscape-font-specification:'Javanese Text';fill:#c12a2a;fill-opacity:1;stroke:#000000;stroke-width:0;stroke-dasharray:none;stroke-opacity:1"
       x="88.248749"
       y="39.283318"
       id="text67136"
       transform="scale(0.56260304,1.7774522)"><tspan
         sodipodi:role="line"
         id="tspan67134"
         style="stroke-width:0"
         x="88.248749"
         y="39.283318">タイヤ ミシュラン</tspan></text>
    <text
       xml:space="preserve"
       style="font-size:10.361px;font-family:'Javanese Text';-inkscape-font-specification:'Javanese Text';fill:#c12a2a;fill-opacity:1;stroke:#000000;stroke-width:0;stroke-dasharray:none;stroke-opacity:1"
       x="366.61493"
       y="39.424969"
       id="text67870"
       transform="scale(0.56260304,1.7774522)"><tspan
         sodipodi:role="line"
         id="tspan67868"
         style="stroke-width:0"
         x="366.61493"
         y="39.424969">マクドナルド</tspan></text>
  </g>
</svg>
