<?xml version="1.0" encoding="UTF-8" standalone="no"?>
<!-- Created with Inkscape (http://www.inkscape.org/) -->

<svg
   width="210mm"
   height="210mm"
   viewBox="0 0 210 210"
   version="1.1"
   id="svg118830"
   sodipodi:docname="CivicMK9Wheel.svg"
   inkscape:export-filename="..\..\..\..\..\..\OneDrive\Desktop\Game_project\2Dcargame\Art\CivicMK8Wheel3.png"
   inkscape:export-xdpi="96"
   inkscape:export-ydpi="96"
   inkscape:version="1.2.1 (9c6d41e410, 2022-07-14)"
   xmlns:inkscape="http://www.inkscape.org/namespaces/inkscape"
   xmlns:sodipodi="http://sodipodi.sourceforge.net/DTD/sodipodi-0.dtd"
   xmlns="http://www.w3.org/2000/svg"
   xmlns:svg="http://www.w3.org/2000/svg">
  <sodipodi:namedview
     id="namedview118832"
     pagecolor="#ffffff"
     bordercolor="#000000"
     borderopacity="0.25"
     inkscape:showpageshadow="2"
     inkscape:pageopacity="0.0"
     inkscape:pagecheckerboard="0"
     inkscape:deskcolor="#d1d1d1"
     inkscape:document-units="mm"
     showgrid="false"
     inkscape:zoom="1.0129762"
     inkscape:cx="342.06134"
     inkscape:cy="417.08779"
     inkscape:window-width="1920"
     inkscape:window-height="991"
     inkscape:window-x="-9"
     inkscape:window-y="-9"
     inkscape:window-maximized="1"
     inkscape:current-layer="layer1" />
  <defs
     id="defs118827">
    <inkscape:path-effect
       effect="copy_rotate"
       starting_point="134.79339,105"
       origin="105.00005,105"
       id="path-effect3190"
       is_visible="true"
       lpeversion="1.2"
       lpesatellites=""
       method="normal"
       num_copies="5"
       starting_angle="0"
       rotation_angle="72"
       gap="-0.01"
       copies_to_360="true"
       mirror_copies="false"
       split_items="false"
       link_styles="false" />
  </defs>
  <g
     inkscape:label="Layer 1"
     inkscape:groupmode="layer"
     id="layer1">
    <g
       id="g3188"
       inkscape:path-effect="#path-effect3190"
       class="UnoptimicedTransforms">
      <path
         style="fill:#d4d4d4;fill-opacity:1;stroke:#30313c;stroke-width:2;stroke-dasharray:none;stroke-opacity:1"
         d="m 108.06271,99.359489 c 0,0 0.33237,-27.505632 1.31781,-39.281726 0.49952,-5.969158 28.9584,-6.889329 28.83035,-4.20021 C 95.345907,11.731549 82.440479,50.163245 82.440479,50.163245 99.224864,52.921029 98.195722,83.812364 101.81735,99.426283 Z m -7.48069,0.984731 c 0,0 -26.056703,-8.815807 -36.951917,-13.392029 C 58.107457,84.632548 66.0266,57.282196 68.544534,58.234962 13.313188,85.360099 45.875906,109.50994 45.875906,109.50994 c 7.809469,-15.110699 36.870852,-4.58598 52.839716,-3.20539 z m -1.375123,7.41886 c 0,0 -16.436298,22.05716 -24.15535,31.005 -3.912703,4.53554 -27.477284,-11.44774 -25.793065,-13.54802 8.730114,60.91026 41.760408,37.40399 41.760408,37.40399 -11.957867,-12.09671 7.032197,-36.48341 13.27987,-51.24407 z m 6.630823,3.60038 c 0,0 15.89851,22.44788 22.02308,32.55417 3.10447,5.12276 -19.37839,22.5949 -20.85542,20.34409 60.62686,10.51948 48.47798,-28.15804 48.47798,-28.15804 -15.19984,7.63452 -32.52471,-17.96201 -44.6323,-28.46519 z m 5.47319,-5.19371 c 0,0 26.26212,-8.183606 37.76637,-10.88541 5.83136,-1.3695 15.50077,25.41216 12.9037,26.12136 28.73934,-54.408872 -11.79937,-54.806616 -11.79937,-54.806616 2.56385,16.815101 -27.13357,25.382276 -40.86415,33.651616 z"
         id="path134444"
         sodipodi:nodetypes="cscccc"
         class="UnoptimicedTransforms"
         inkscape:original-d="m 108.06271,99.359489 c 0,0 0.33237,-27.505632 1.31781,-39.281726 0.49952,-5.969158 28.9584,-6.889329 28.83035,-4.20021 C 95.345907,11.731549 82.440479,50.163245 82.440479,50.163245 99.224864,52.921029 98.195722,83.812364 101.81735,99.426283 Z" />
      <path
         style="fill:#000000;fill-opacity:0.3359375;stroke:none;stroke-width:1;stroke-dasharray:none;stroke-opacity:1"
         d="m 104.31128,97.837252 c -1.00231,-13.810928 -3.41312,-37.270579 -1.24821,-40.200509 3.73153,-5.050148 11.33313,-7.670034 11.33313,-7.670034 0.93763,-0.63457 -5.42176,-2.085644 -7.00727,-0.653414 0,0 -7.426819,4.730516 -8.266499,8.290797 -0.57627,2.443383 5.188849,40.23316 5.188849,40.23316 z m -6.336251,5.604398 C 84.530325,100.12709 61.473891,95.170476 59.356356,92.206126 55.706486,87.096649 55.56385,79.057508 55.56385,79.057508 c -0.313768,-1.087832 -3.658981,4.511901 -2.786799,6.462394 0,0 2.203975,8.525134 5.330528,10.423905 2.145718,1.303112 39.86745,7.497843 39.86745,7.497843 z m 3.372091,7.75799 c -7.306971,11.76241 -19.145826,32.15871 -22.619444,33.25657 -5.987274,1.89232 -13.677028,-0.45626 -13.677028,-0.45626 -1.131549,-0.0378 3.160385,4.87415 5.284934,4.64739 0,0 8.78895,0.53831 11.560946,-1.84847 1.902397,-1.63801 19.450592,-35.59923 19.450592,-35.59923 z m 8.42032,-0.80971 c 8.92874,10.58414 24.66836,28.14636 24.63908,31.78922 -0.0505,6.279 -4.66036,12.86664 -4.66036,12.86664 -0.38557,1.0645 5.61221,-1.49951 6.05307,-3.59015 0,0 3.22789,-8.19244 1.81453,-11.56632 -0.96997,-2.31546 -27.84632,-29.49939 -27.84632,-29.49939 z m 1.83194,-8.2584 c 12.82525,-5.221069 34.39172,-14.763312 37.84724,-13.609759 5.95609,1.988315 10.79677,8.408277 10.79677,8.408277 0.89326,0.695646 0.30815,-5.8009 -1.54393,-6.866226 0,0 -6.794,-5.601515 -10.43951,-5.299911 -2.50187,0.206982 -36.66057,17.367619 -36.66057,17.367619 z"
         id="path11031"
         sodipodi:nodetypes="cssssc"
         inkscape:original-d="m 104.31128,97.837252 c -1.00231,-13.810928 -3.41312,-37.270579 -1.24821,-40.200509 3.73153,-5.050148 11.33313,-7.670034 11.33313,-7.670034 0.93763,-0.63457 -5.42176,-2.085644 -7.00727,-0.653414 0,0 -7.426819,4.730516 -8.266499,8.290797 -0.57627,2.443383 5.188849,40.23316 5.188849,40.23316 z" />
      <path
         style="fill:#30313c;fill-opacity:1;stroke:#30313c;stroke-width:1;stroke-dasharray:none;stroke-opacity:1"
         d="m 105,98.581622 c -1.00231,-13.810928 -1.79551,-37.368527 0.3694,-40.298457 3.73153,-5.050148 11.33313,-7.670034 11.33313,-7.670034 0.93763,-0.63457 -5.42176,-2.085644 -7.00727,-0.653414 0,0 -7.42682,4.730516 -8.2665,8.290797 C 100.85249,60.693897 105,98.581622 105,98.581622 Z m -6.104206,4.435038 C 85.45109,99.702102 62.80137,93.176781 60.683835,90.212431 57.033965,85.102954 56.891329,77.063813 56.891329,77.063813 c -0.313768,-1.087832 -3.658981,4.511901 -2.786799,6.462394 0,0 2.203974,8.525136 5.330527,10.423906 2.145719,1.303112 39.460737,9.066547 39.460737,9.066547 z m 2.331666,7.17595 c -7.306971,11.76241 -20.512068,31.28714 -23.985687,32.385 -5.987274,1.89232 -13.677028,-0.45625 -13.677028,-0.45625 -1.131549,-0.0378 3.160385,4.87415 5.284934,4.64739 0,0 8.788951,0.53831 11.560947,-1.84847 1.902397,-1.63802 20.816834,-34.72767 20.816834,-34.72767 z m 7.54526,-6e-5 c 8.92874,10.58413 23.41727,29.1764 23.38799,32.81926 -0.0505,6.279 -4.66037,12.86664 -4.66037,12.86664 -0.38556,1.0645 5.61221,-1.49951 6.05307,-3.59015 0,0 3.2279,-8.19244 1.81453,-11.56632 -0.96997,-2.31546 -26.59522,-30.52943 -26.59522,-30.52943 z m 2.33155,-7.17599 c 12.82525,-5.22106 34.98474,-13.255137 38.44027,-12.101583 5.95608,1.988314 10.79676,8.408276 10.79676,8.408276 0.89326,0.695647 0.30815,-5.8009 -1.54393,-6.866226 0,0 -6.794,-5.601515 -10.43951,-5.299911 -2.50187,0.206981 -37.25359,15.859444 -37.25359,15.859444 z"
         id="path142432"
         sodipodi:nodetypes="cssssc"
         inkscape:original-d="m 105,98.581622 c -1.00231,-13.810928 -1.79551,-37.368527 0.3694,-40.298457 3.73153,-5.050148 11.33313,-7.670034 11.33313,-7.670034 0.93763,-0.63457 -5.42176,-2.085644 -7.00727,-0.653414 0,0 -7.42682,4.730516 -8.2665,8.290797 C 100.85249,60.693897 105,98.581622 105,98.581622 Z" />
    </g>
    <circle
       style="fill:#393a47;fill-opacity:1;stroke:#30313c;stroke-width:2;stroke-dasharray:none;stroke-opacity:1"
       id="path125928"
       cx="105"
       cy="105"
       r="6.4183769" />
    <path
       style="fill:none;fill-opacity:1;stroke:#aaaaaa;stroke-width:0.7;stroke-dasharray:none;stroke-opacity:1"
       d="m 103.61225,102.03339 v 5.93323"
       id="path5125" />
    <path
       style="fill:none;fill-opacity:1;stroke:#aaaaaa;stroke-width:0.7;stroke-dasharray:none;stroke-opacity:1"
       d="m 106.4288,102.03339 v 5.93323"
       id="path5129" />
    <path
       style="fill:none;fill-opacity:1;stroke:#aaaaaa;stroke-width:1;stroke-dasharray:none;stroke-opacity:1"
       d="m 103.61225,105.38363 h 2.81655"
       id="path5131" />
    <circle
       style="fill:none;fill-opacity:1;stroke:#aaaaaa;stroke-width:0.5;stroke-dasharray:none;stroke-opacity:1"
       id="path7363"
       cx="105"
       cy="105"
       r="3.4108181" />
    <path
       id="path17624"
       style="fill:#393a47;fill-opacity:1;stroke:#30313c;stroke-width:2.94904;stroke-dasharray:none;stroke-opacity:1"
       d="M 104.99979 33.138546 A 71.861519 71.861519 0 0 0 33.138546 104.99979 A 71.861519 71.861519 0 0 0 104.99979 176.86156 A 71.861519 71.861519 0 0 0 176.86156 104.99979 A 71.861519 71.861519 0 0 0 104.99979 33.138546 z M 104.99979 45.711938 A 59.288038 59.288038 0 0 1 164.28816 104.99979 A 59.288038 59.288038 0 0 1 104.99979 164.28816 A 59.288038 59.288038 0 0 1 45.711938 104.99979 A 59.288038 59.288038 0 0 1 104.99979 45.711938 z " />
  </g>
</svg>
